HIERARCHY
ROOT hip
{
  OFFSET 0 0 0
  CHANNELS 6 Xposition Yposition Zposition Zrotation Yrotation Xrotation
  JOINT abdomen
  {
    OFFSET 0 20.6881 -0.73152
    CHANNELS 3 Zrotation Xrotation Yrotation
    JOINT chest
    {
      OFFSET 0 11.7043 -0.48768
      CHANNELS 3 Zrotation Xrotation Yrotation
      JOINT neck
      {
        OFFSET 0 22.1894 -2.19456
        CHANNELS 3 Zrotation Xrotation Yrotation
        JOINT head
        {
          OFFSET -0.24384 7.07133 1.2192
          CHANNELS 3 Zrotation Xrotation Yrotation
          JOINT leftEye
          {
            OFFSET 4.14528 8.04674 8.04672
            CHANNELS 3 Zrotation Xrotation Yrotation
            End Site
            {
              OFFSET 1 0 0
            }
          }
          JOINT rightEye
          {
            OFFSET -3.6576 8.04674 8.04672
            CHANNELS 3 Zrotation Xrotation Yrotation
            End Site
            {
              OFFSET 1 0 0
            }
          }
        }
      }
      JOINT rCollar
      {
        OFFSET -2.68224 19.2634 -4.8768
        CHANNELS 3 Zrotation Xrotation Yrotation
        JOINT rShldr
        {
          OFFSET -8.77824 -1.95073 1.46304
          CHANNELS 3 Zrotation Xrotation Yrotation
          JOINT rForeArm
          {
            OFFSET -28.1742 -1.7115 0.48768
            CHANNELS 3 Zrotation Xrotation Yrotation
            JOINT rHand
            {
              OFFSET -22.5879 0.773209 7.07136
              CHANNELS 3 Zrotation Xrotation Yrotation
              JOINT rThumb1
              {
                OFFSET -1.2192 -0.487915 3.41376
                CHANNELS 3 Zrotation Xrotation Yrotation
                JOINT rThumb2
                {
                  OFFSET -3.37035 -0.52449 3.41376
                  CHANNELS 3 Zrotation Xrotation Yrotation
                  End Site
                  {
                    OFFSET -1.78271 -1.18214 1.43049
                  }
                }
              }
              JOINT rIndex1
              {
                OFFSET -7.75947 0.938293 5.60832
                CHANNELS 3 Zrotation Xrotation Yrotation
                JOINT rIndex2
                {
                  OFFSET -2.54057 -0.884171 1.56538
                  CHANNELS 3 Zrotation Xrotation Yrotation
                  End Site
                  {
                    OFFSET -1.62519 -0.234802 1.16502
                  }
                }
              }
              JOINT rMid1
              {
                OFFSET -8.24714 1.18213 3.41376
                CHANNELS 3 Zrotation Xrotation Yrotation
                JOINT rMid2
                {
                  OFFSET -3.10165 -0.590103 1.0647
                  CHANNELS 3 Zrotation Xrotation Yrotation
                  End Site
                  {
                    OFFSET -2.48547 -0.328903 0.83742
                  }
                }
              }
              JOINT rRing1
              {
                OFFSET -8.82822 0.546677 1.51678
                CHANNELS 3 Zrotation Xrotation Yrotation
                JOINT rRing2
                {
                  OFFSET -2.60934 -0.819778 -0.0198488
                  CHANNELS 3 Zrotation Xrotation Yrotation
                  End Site
                  {
                    OFFSET -2.33842 -0.294052 0.168128
                  }
                }
              }
              JOINT rPinky1
              {
                OFFSET -8.27202 -0.0477905 -0.4584
                CHANNELS 3 Zrotation Xrotation Yrotation
                JOINT rPinky2
                {
                  OFFSET -1.82734 -0.647385 -0.700984
                  CHANNELS 3 Zrotation Xrotation Yrotation
                  End Site
                  {
                    OFFSET -1.69225 -0.51767 -0.607171
                  }
                }
              }
            }
          }
        }
      }
      JOINT lCollar
      {
        OFFSET 2.68224 19.2634 -4.8768
        CHANNELS 3 Zrotation Xrotation Yrotation
        JOINT lShldr
        {
          OFFSET 8.77824 -1.95073 1.46304
          CHANNELS 3 Zrotation Xrotation Yrotation
          JOINT lForeArm
          {
            OFFSET 28.1742 -1.7115 0.48768
            CHANNELS 3 Zrotation Xrotation Yrotation
            JOINT lHand
            {
              OFFSET 22.5879 0.773209 7.07136
              CHANNELS 3 Zrotation Xrotation Yrotation
              JOINT lThumb1
              {
                OFFSET 1.2192 -0.487915 3.41376
                CHANNELS 3 Zrotation Xrotation Yrotation
                JOINT lThumb2
                {
                  OFFSET 3.37035 -0.52449 3.41376
                  CHANNELS 3 Zrotation Xrotation Yrotation
                  End Site
                  {
                    OFFSET 1.78271 -1.18214 1.43049
                  }
                }
              }
              JOINT lIndex1
              {
                OFFSET 7.75947 0.938293 5.60832
                CHANNELS 3 Zrotation Xrotation Yrotation
                JOINT lIndex2
                {
                  OFFSET 2.54057 -0.884171 1.56538
                  CHANNELS 3 Zrotation Xrotation Yrotation
                  End Site
                  {
                    OFFSET 1.62519 -0.234802 1.16502
                  }
                }
              }
              JOINT lMid1
              {
                OFFSET 8.24714 1.18213 3.41376
                CHANNELS 3 Zrotation Xrotation Yrotation
                JOINT lMid2
                {
                  OFFSET 3.10165 -0.590103 1.0647
                  CHANNELS 3 Zrotation Xrotation Yrotation
                  End Site
                  {
                    OFFSET 2.48547 -0.328903 0.83742
                  }
                }
              }
              JOINT lRing1
              {
                OFFSET 8.82822 0.546677 1.51678
                CHANNELS 3 Zrotation Xrotation Yrotation
                JOINT lRing2
                {
                  OFFSET 2.60934 -0.819778 -0.0198488
                  CHANNELS 3 Zrotation Xrotation Yrotation
                  End Site
                  {
                    OFFSET 2.33842 -0.294052 0.168128
                  }
                }
              }
              JOINT lPinky1
              {
                OFFSET 8.27202 -0.0477905 -0.4584
                CHANNELS 3 Zrotation Xrotation Yrotation
                JOINT lPinky2
                {
                  OFFSET 1.82734 -0.647385 -0.700984
                  CHANNELS 3 Zrotation Xrotation Yrotation
                  End Site
                  {
                    OFFSET 1.69225 -0.51767 -0.607171
                  }
                }
              }
            }
          }
        }
      }
    }
  }
  JOINT rButtock
  {
    OFFSET -8.77824 4.35084 1.2192
    CHANNELS 3 Zrotation Xrotation Yrotation
    JOINT rThigh
    {
      OFFSET 0 -1.70687 -2.19456
      CHANNELS 3 Zrotation Xrotation Yrotation
      JOINT rShin
      {
        OFFSET 0 -36.8199 0.73152
        CHANNELS 3 Zrotation Xrotation Yrotation
        JOINT rFoot
        {
          OFFSET 0.73152 -45.1104 -5.12064
          CHANNELS 3 Zrotation Xrotation Yrotation
          End Site
          {
            OFFSET -1.1221 -3.69964 12.103
          }
        }
      }
    }
  }
  JOINT lButtock
  {
    OFFSET 8.77824 4.35084 1.2192
    CHANNELS 3 Zrotation Xrotation Yrotation
    JOINT lThigh
    {
      OFFSET 0 -1.70687 -2.19456
      CHANNELS 3 Zrotation Xrotation Yrotation
      JOINT lShin
      {
        OFFSET 0 -36.8199 0.73152
        CHANNELS 3 Zrotation Xrotation Yrotation
        JOINT lFoot
        {
          OFFSET -0.73152 -45.1104 -5.12064
          CHANNELS 3 Zrotation Xrotation Yrotation
          End Site
          {
            OFFSET 1.1221 -3.69964 12.103
          }
        }
      }
    }
  }
}
MOTION
Frames:	4
Frame Time:	0.00833333
-9.58153 82.6662 -25.3527 25.436 25.4713 84.7574 16.9451 25.4873 3.41575 10.3032 4.32359 1.93476 0.231319 1.91027 -9.46241 -14.5774 -26.8764 -23.5833 -0.0 0.0 0.0 -0.0 0.0 0.0 -8.3892e-13 5.59782e-13 -3.38033e-13 0.884798 -27.6703 57.6297 -11.8439 -5.33977 21.3081 -0.240918 13.8421 1.98453 5.31861e-09 9.0455e-09 -3.34505e-09 9.14524e-09 1.57004e-08 -5.85367e-09 5.31861e-09 9.0455e-09 -3.34507e-09 7.73091 5.47488 0.417314 5.3186e-09 9.0455e-09 -3.34506e-09 2.90554 0.965183 0.102902 5.31861e-09 9.0455e-09 -3.34505e-09 10.2786 0.731801 0.0259123 5.3186e-09 9.0455e-09 -3.34504e-09 2.22167 -0.733487 -0.20892 -8.38878e-13 5.59773e-13 -3.38232e-13 -49.0523 53.0117 -42.5963 28.0306 -30.7974 -68.523 0.276755 -14.8089 2.12936 1.41733e-09 -5.92434e-09 2.133e-09 2.40758e-09 -1.02165e-08 3.71908e-09 1.41732e-09 -5.92434e-09 2.13303e-09 -7.73091 5.47488 -0.417314 1.41733e-09 -5.92434e-09 2.13301e-09 -2.90554 0.965183 -0.102902 1.41732e-09 -5.92434e-09 2.13301e-09 -10.2786 0.731801 -0.0259123 1.41733e-09 -5.92434e-09 2.13301e-09 -2.22167 -0.733487 0.20892 -2.03217e-16 0.0 -3.88251e-19 -151.933 -65.1445 -134.399 -0.442637 45.6134 1.00117 -2.31795 0.173552 -20.3624 2.03217e-16 0.0 3.88251e-19 5.4822 -58.6519 0.874812 0.141526 34.6671 -1.13669 1.74569 15.2442 -7.79021
-9.63942 82.5896 -25.2855 25.4747 25.2948 85.1172 16.9028 25.5908 3.57981 10.3545 4.36428 1.97456 0.300614 2.0428 -9.48786 -14.7292 -27.4534 -23.8242 -0.0 0.0 0.0 -0.0 0.0 0.0 -9.19921e-13 5.46343e-13 4.39539e-14 1.2917 -28.7007 58.1084 -11.6676 -5.21833 20.9684 -0.289018 15.0779 2.17016 5.04812e-09 8.24288e-09 -4.39896e-09 8.6635e-09 1.43067e-08 -7.67176e-09 5.04812e-09 8.24289e-09 -4.39897e-09 7.73091 5.47488 0.417314 5.04812e-09 8.24289e-09 -4.39897e-09 2.90554 0.965183 0.102902 5.04813e-09 8.24289e-09 -4.39896e-09 10.2786 0.731801 0.0259123 5.04812e-09 8.24289e-09 -4.39895e-09 2.22167 -0.733487 -0.20892 -9.19898e-13 5.46327e-13 4.37326e-14 -48.9871 53.0494 -42.7275 28.0679 -31.028 -68.8857 0.280374 -14.9022 2.14342 1.47106e-09 -4.7316e-09 1.37506e-09 2.5078e-09 -8.1557e-09 2.40677e-09 1.47105e-09 -4.7316e-09 1.37509e-09 -7.73091 5.47488 -0.417314 1.47106e-09 -4.7316e-09 1.37507e-09 -2.90554 0.965183 -0.102902 1.47105e-09 -4.7316e-09 1.37507e-09 -10.2786 0.731801 -0.0259123 1.47106e-09 -4.7316e-09 1.37507e-09 -2.22167 -0.733487 0.20892 -2.03217e-16 0.0 -3.88251e-19 -152.781 -64.6455 -135.264 -0.453441 46.0331 1.01636 -2.33382 0.109058 -20.1909 2.03217e-16 0.0 3.88251e-19 5.46798 -58.6191 1.0721 0.140539 34.726 -1.14895 1.79206 15.2265 -8.01605
-9.69748 82.5062 -25.2063 25.4125 25.0815 85.3843 16.8178 25.7618 3.79013 10.4074 4.4096 2.02606 0.352117 2.12851 -9.50969 -14.8885 -27.9557 -24.0425 -0.0 0.0 0.0 -0.0 0.0 0.0 -9.48259e-13 4.78885e-13 6.66929e-13 1.57544 -29.6499 58.5539 -11.4885 -5.09636 20.6241 -0.332987 16.1718 2.33587 4.08935e-09 6.00507e-09 -5.65335e-09 6.99006e-09 1.0422e-08 -9.82692e-09 4.08935e-09 6.00507e-09 -5.65336e-09 7.73091 5.47488 0.417314 4.08935e-09 6.00507e-09 -5.65336e-09 2.90554 0.965183 0.102902 4.08935e-09 6.00507e-09 -5.65335e-09 10.2786 0.731801 0.0259123 4.08934e-09 6.00507e-09 -5.65334e-09 2.22167 -0.733487 -0.20892 -9.48261e-13 4.7886e-13 6.66674e-13 -48.9347 53.0754 -42.8361 28.1076 -31.2897 -69.3031 0.283934 -14.9931 2.15712 1.38782e-09 -2.25599e-09 4.36287e-11 2.37915e-09 -3.87995e-09 9.7982e-11 1.38782e-09 -2.25599e-09 4.36491e-11 -7.73091 5.47488 -0.417314 1.38782e-09 -2.25599e-09 4.36289e-11 -2.90554 0.965183 -0.102902 1.38782e-09 -2.25599e-09 4.36333e-11 -10.2786 0.731801 -0.0259123 1.38783e-09 -2.25599e-09 4.36251e-11 -2.22167 -0.733487 0.20892 -2.03217e-16 0.0 -3.88251e-19 -153.633 -64.2474 -136.181 -0.462988 46.3975 1.02972 -2.35024 0.0359189 -19.997 2.03217e-16 0.0 3.88251e-19 5.54637 -58.5199 1.39113 0.138597 34.7471 -1.16109 1.84018 15.1929 -8.25442
-9.74401 82.4144 -25.1226 25.2954 24.9296 85.6049 16.7221 25.9482 4.00829 10.4557 4.45779 2.07935 0.404109 2.20389 -9.52273 -15.0381 -28.432 -24.2348 -0.0 0.0 0.0 -0.0 0.0 0.0 -9.52729e-13 3.95425e-13 1.28682e-12 1.78708 -30.521 58.9851 -11.3066 -4.97408 20.2757 -0.374291 17.1427 2.48443 3.00773e-09 3.551e-09 -6.79755e-09 5.10545e-09 6.16202e-09 -1.17901e-08 3.00773e-09 3.55101e-09 -6.79756e-09 7.73091 5.47488 0.417314 3.00773e-09 3.55101e-09 -6.79756e-09 2.90554 0.965183 0.102902 3.00774e-09 3.55101e-09 -6.79755e-09 10.2786 0.731801 0.0259123 3.00773e-09 3.55101e-09 -6.79755e-09 2.22167 -0.733487 -0.20892 -9.52757e-13 3.95391e-13 1.28653e-12 -48.8819 53.0872 -42.939 28.145 -31.5562 -69.7344 0.287998 -15.0969 2.17277 1.25727e-09 3.19237e-10 -1.33876e-09 2.16979e-09 5.67247e-10 -2.29955e-09 1.25727e-09 3.19237e-10 -1.33874e-09 -7.73091 5.47488 -0.417314 1.25728e-09 3.19235e-10 -1.33876e-09 -2.90554 0.965183 -0.102902 1.25727e-09 3.19235e-10 -1.33876e-09 -10.2786 0.731801 -0.0259123 1.25728e-09 3.19235e-10 -1.33877e-09 -2.22167 -0.733487 0.20892 -2.03217e-16 0.0 -3.88251e-19 -154.451 -63.9055 -137.075 -0.471363 46.71 1.04115 -2.36163 -0.022084 -19.8143 2.03217e-16 0.0 3.88251e-19 5.63259 -58.4159 1.68609 0.136459 34.755 -1.17271 1.89207 15.136 -8.52175
